<?xml version="1.0" encoding="UTF-8" standalone="no"?>
<svg xmlns="http://www.w3.org/2000/svg" width="325" height="305" viewBox="0 0 325 305">
  <g style="fill:#874fa9" transform="translate(0,-72.82)">
    <path d="m 124.821,77.1799 c 24.444,-5.8512 50.2,-5.7058 74.689,-0.2014 0.145,0.2126 0.437,0.6265 0.593,0.8391 5.815,7.921 11.45,15.9762 16.446,24.4454 4.47,7.362 8.38,15.025 12.166,22.756 10.083,-0.593 20.21,-1.063 30.315,-0.47 7.741,0.201 15.426,1.119 23.134,1.824 l 0.907,0.056 c 9.433,10.471 17.476,22.151 23.963,34.648 -2.678,8.123 -5.624,16.133 -9.019,23.976 -5.668,-14.992 -13.79,-28.966 -23.805,-41.473 -12.626,-1.41 -25.363,-1.6 -38.056,-1.074 5.736,15.137 10.038,30.788 12.984,46.709 1.501,9.185 2.778,18.426 3.316,27.734 -1.087,4.744 3.831,6.735 5.198,10.685 3.417,7.16 1.154,16.177 -4.862,21.245 -0.078,0.94 -0.224,2.797 -0.302,3.726 -0.269,4.072 -0.572,8.133 -1.087,12.183 -0.571,5.538 -1.49,11.043 -2.386,16.547 -2.947,16.144 -7.428,31.986 -13.276,47.324 12.458,0.571 24.927,0.291 37.339,-0.861 11.046,-13.235 19.84,-28.372 25.554,-44.651 3.036,-8.223 4.974,-16.792 6.531,-25.396 4.268,8.122 8.301,16.357 11.931,24.781 l 0.403,0.895 c -7.461,23.383 -20.03,45.389 -37.204,62.943 -17.297,0.112 -34.639,1.197 -51.903,-0.325 -4.156,7.742 -8.054,15.63 -12.625,23.148 -7.999,3.11 -16.233,5.583 -24.635,7.306 l -1.927,0.425 c 7.461,-10.506 14.25,-21.492 20.098,-32.971 -15.774,-2.506 -31.357,-6.276 -46.424,-11.579 -8.682,-3.066 -17.241,-6.523 -25.531,-10.506 -1.748,-0.85 -3.496,-1.667 -5.243,-2.483 -4.997,2.226 -10.979,2.405 -15.875,-0.19 -5.478,-2.73 -9.219,-8.414 -9.735,-14.477 -0.661,-0.482 -1.983,-1.455 -2.644,-1.947 -8.1215,-5.27 -15.7506,-11.255 -23.2228,-17.408 -12.2895,-10.539 -23.6715,-22.119 -33.922,-34.638 -7.4162,11.188 -13.7681,23.036 -19.3919,35.208 5.7022,15.775 14.7092,30.218 25.4526,43.051 13.3089,1.141 26.7074,1.454 40.0386,0.548 0.1121,0.28 0.3361,0.828 0.4369,1.108 2.2406,5.493 4.6044,10.93 7.1366,16.3 -8.9626,0.638 -17.9248,1.231 -26.9094,1.03 -9.1751,-0.123 -18.3165,-0.784 -27.4579,-1.656 -0.5154,-0.067 -1.546,-0.19 -2.0613,-0.258 C 22.9096,323.524 8.2676,295.018 2.75584,264.665 -1.22113,243.207 -0.92986,220.91 3.86492,199.597 9.72395,173.127 22.4615,148.245 40.4083,127.928 62.3993,102.856 92.3106,84.7764 124.821,77.1799 Z m 14.44,15.428 C 130.4,94.1294 121.583,96.2103 113.17,99.4324 98.0688,104.791 84.0654,112.97 71.4959,122.86 c -7.0801,5.952 -13.8914,12.295 -19.7056,19.511 -10.553,12.553 -19.1455,26.94 -24.6237,42.38 5.5342,12.396 12.0654,24.356 19.5488,35.7 10.0153,-12.329 21.2852,-23.629 33.1714,-34.1 7.5506,-5.896 14.8548,-12.206 23.0552,-17.185 l -0.011,-0.19 c 1.255,-0.828 2.487,-1.69 3.708,-2.585 0.022,-3.692 0.941,-7.417 3.058,-10.483 5.053,-7.965 16.659,-10.382 24.523,-5.191 1.333,-0.604 2.666,-1.219 4.011,-1.823 8.133,-4.017 16.681,-7.082 25.094,-10.416 15.157,-5.001 30.729,-8.816 46.48,-11.434 -6.038,-11.77 -12.827,-23.159 -20.647,-33.8432 -16.445,-3.0431 -33.373,-3.1438 -49.897,-0.5929 z m 51.735,56.5321 c -8.985,2.17 -17.835,4.889 -26.484,8.122 l 0.359,0.146 c -7.696,2.092 -14.9,5.963 -22.26,9.095 -0.616,5.012 -2.711,10.025 -6.811,13.18 -5.389,4.519 -13.41,5.202 -19.605,1.946 -7.36,4.934 -14.665,10.013 -21.3414,15.865 -7.6402,6.03 -14.7092,12.776 -21.442,19.791 -5.6126,5.806 -10.8107,11.993 -15.8295,18.303 5.5117,6.937 11.2364,13.716 17.4987,19.993 l -0.0336,0.145 c 6.7104,6.601 13.4881,13.168 20.9155,18.975 5.8703,4.911 12.1103,9.353 18.4173,13.66 5.579,-3.692 13.186,-3.938 18.944,-0.515 5.859,3.29 9.186,9.991 8.984,16.614 7.159,3.379 14.374,6.646 21.823,9.32 8.783,3.311 17.779,6.063 26.898,8.29 8.582,2.126 17.297,3.647 26.047,4.9 3.416,-8.436 6.486,-17.017 8.906,-25.799 l 0.123,-0.056 c 2.442,-9.196 4.616,-18.471 6.072,-27.88 1.165,-7.149 1.882,-14.354 2.487,-21.581 -4.638,-2.025 -8.503,-5.874 -10.15,-10.696 -3.316,-8.693 1.535,-19.131 10.128,-22.521 -0.561,-7.339 -1.289,-14.667 -2.532,-21.917 -1.389,-9.398 -3.608,-18.65 -6.095,-27.801 -2.453,-8.313 -5.265,-16.502 -8.469,-24.547 -8.928,1.22 -17.812,2.764 -26.55,4.968 z M 19.9857,210.785 c -2.6439,16.39 -2.6663,33.172 0.0896,49.551 4.6155,-8.526 9.8248,-16.704 15.2245,-24.759 -5.4669,-8.044 -10.5642,-16.312 -15.3141,-24.792 z" />
    <path d="m 200.104,77.8175 c 1.658,-0.6377 3.316,0.2685 4.929,0.6042 13.488,3.8038 26.774,8.939 38.672,16.4013 -4.291,4.7996 -10.307,7.541 -14.934,11.982 -3.965,-1.756 -7.752,-4.497 -12.222,-4.542 -4.996,-8.4693 -10.631,-16.5245 -16.445,-24.4455 z" style="opacity:0.19" />
    <path d="m 113.17,99.4325 c 8.413,-3.2221 17.23,-5.303 26.091,-6.8246 -7.382,10.9191 -14.798,21.9281 -20.377,33.9101 13.465,2.159 26.752,5.37 39.702,9.655 1.692,0.515 3.249,1.343 4.739,2.305 -8.413,3.334 -16.961,6.399 -25.094,10.416 -8.929,-2.383 -18.026,-4.229 -27.201,-5.359 -3.215,7.775 -6.183,15.707 -8.278,23.852 l 0.179,1.589 0.011,0.19 c -8.2004,4.979 -15.5046,11.289 -23.0552,17.185 2.1509,-15.384 7.4834,-30.073 12.2222,-44.785 -13.4433,-0.806 -26.9202,-0.47 -40.3187,0.805 5.8142,-7.216 12.6255,-13.559 19.7056,-19.511 9.4215,0.559 18.8879,0.425 28.3094,1.186 4.3127,-8.279 8.6487,-16.547 13.3647,-24.6135 z" style="opacity:0.2" />
    <path d="m 243.705,94.8229 0.19,-0.2238 c 13.119,7.6969 25.162,17.2179 35.692,28.1819 0.975,1.097 2.218,2.092 2.577,3.591 -7.708,-0.704 -15.393,-1.622 -23.134,-1.823 -4.212,-0.045 -7.405,-2.887 -10.508,-5.348 -6.184,-4.732 -12.973,-8.592 -19.751,-12.396 4.627,-4.442 10.643,-7.1826 14.934,-11.9821 z" style="opacity:0.16" />
    <path d="m 164.512,157.262 c 8.649,-3.233 17.499,-5.952 26.484,-8.122 7.954,4.218 15.975,8.346 23.537,13.269 -4.571,4.508 -10.452,7.316 -15.158,11.68 -10.978,-6.556 -22.663,-11.848 -34.504,-16.681 z" style="opacity:0.16" />
    <path d="m 73.4116,217.285 c 6.7329,-7.015 13.8018,-13.761 21.4421,-19.792 0.997,3.122 0.2464,6.366 -0.1457,9.521 -2.7558,22.488 -1.9716,45.3 1.2547,67.686 -7.4274,-5.806 -14.205,-12.373 -20.9155,-18.974 l 0.0336,-0.146 c 0.8178,-2.159 0.4593,-4.475 0.3921,-6.712 -0.6609,-10.64 -0.4929,-21.313 0.0896,-31.964 -0.5377,0.101 -1.6131,0.291 -2.1509,0.381 z" style="opacity:0.16" />
    <path d="m 298.016,185.053 c 3.394,-7.843 6.34,-15.854 9.018,-23.976 8.111,15.406 13.32,32.311 15.908,49.506 -0.471,2.048 0.067,4.956 -2.196,6.064 -4.66,3.021 -8.895,6.791 -14.026,9.017 -0.493,-4.307 -0.65,-8.715 -1.972,-12.888 -3.562,4.553 -5.892,9.912 -9.197,14.634 -1.591,2.808 -4.436,5.347 -4.067,8.849 -2.767,4.252 -7.36,6.5 -11.651,8.883 -7.349,5.784 -15.37,10.674 -22.517,16.715 -1.804,1.275 -3.899,2.047 -5.915,2.931 0.515,-4.05 0.818,-8.111 1.087,-12.183 6.508,-4.71 11.594,-11.289 15.896,-17.99 -3.327,-4.733 -7.573,-8.727 -10.956,-13.426 4.167,-4.229 10.542,-6.108 13.264,-11.68 3.159,3.054 5.837,6.545 8.604,9.946 7.494,-10.729 13.141,-22.599 18.72,-34.402 z" style="opacity:0.07" />
    <path d="m 108.174,319.306 c 1.21,2.685 1.859,5.717 3.831,7.977 8.57,-1.096 17.118,-2.696 25.341,-5.415 8.29,3.983 16.849,7.44 25.531,10.505 -1.053,0.761 -2.185,1.365 -3.406,1.802 -12.816,4.452 -26.035,7.663 -39.378,10.125 -0.201,4.016 3.574,7.126 4.694,10.93 -4.761,3.323 -10.06,5.93 -14.093,10.203 -4.111,-5.772 -6.901,-12.317 -10.317,-18.493 -2.5322,-5.37 -4.896,-10.807 -7.1365,-16.301 4.6491,-4.24 10.8665,-6.444 14.9335,-11.333 z" style="opacity:0.07" />
    <path d="m 214.533,162.408 c 3.999,1.768 7.046,5.729 11.483,6.31 2.487,9.152 4.705,18.404 6.094,27.802 -10.62,-7.899 -21.263,-15.786 -32.735,-22.431 4.706,-4.364 10.587,-7.172 15.158,-11.681 z" style="opacity:0.14" />
    <path d="m 249.138,189.214 c 1.927,0.839 3.797,1.869 5.287,3.39 5.579,5.482 11.259,10.886 16.267,16.905 -2.722,5.572 -9.097,7.451 -13.264,11.68 -1.468,-1.622 -3.193,-2.998 -4.974,-4.24 -0.538,-9.308 -1.815,-18.549 -3.316,-27.735 z" style="opacity:0.1" />
    <path d="m 322.942,210.583 c 2.453,11.378 2.117,23.282 1.646,34.906 -1.478,12.486 -2.901,25.262 -7.494,37.043 -3.63,-8.424 -7.663,-16.659 -11.931,-24.781 -1.557,8.603 -3.495,17.173 -6.531,25.396 -4.504,-6.119 -7.069,-13.358 -10.845,-19.903 4.616,-3.479 9.545,-6.612 14.598,-9.375 0.649,0.447 1.949,1.342 2.587,1.79 2.218,-9.756 1.714,-20.004 1.748,-29.995 5.131,-2.226 9.365,-5.996 14.026,-9.017 2.263,-1.108 1.725,-4.016 2.196,-6.064 z" style="opacity:0.04" />
    <path d="m 291.484,236.259 c 4.493,5.281 7.842,11.423 10.901,17.61 -5.053,2.763 -9.982,5.896 -14.598,9.375 -2.554,-4.128 -4.817,-8.48 -7.965,-12.194 -5.265,3.58 -8.256,9.487 -12.939,13.716 -5.982,5.493 -10.9,12.273 -17.868,16.569 0.896,-5.504 1.814,-11.009 2.386,-16.547 2.016,-0.884 4.111,-1.656 5.915,-2.931 7.147,-6.041 15.168,-10.931 22.517,-16.715 4.291,-2.383 8.884,-4.631 11.651,-8.883 z" style="opacity:0.05" />
    <path d="m 124.787,355.23 c 2.622,3.256 4.28,7.161 6.677,10.573 2.342,3.849 5.299,7.328 7.226,11.412 -10.004,0.257 -20.019,-0.034 -30.023,0.235 -4.997,-0.09 -10.0269,0.391 -14.9898,-0.392 1.6917,-0.783 3.1816,-1.924 4.4587,-3.278 2.1511,-2.428 6.1051,-2.696 7.4161,-5.93 2.084,0.828 4.235,1.432 6.442,1.835 -0.381,-1.432 -0.784,-2.864 -1.3,-4.251 4.033,-4.274 9.332,-6.881 14.093,-10.204 z" style="opacity:0.05" />
    <path d="m 183.669,304.751 c 17.521,-8.257 33.463,-19.411 48.508,-31.516 -1.457,9.409 -3.63,18.684 -6.072,27.88 l -0.123,0.056 c -6.24,2.64 -11.293,7.283 -17.219,10.472 -5.769,3.725 -12.357,6.142 -17.734,10.427 -9.119,-2.227 -18.115,-4.979 -26.898,-8.291 6.453,-3.143 13.264,-5.526 19.538,-9.028 z" style="opacity:0.06" />
    <path d="m 80.6262,285.363 c 7.4723,6.153 15.1013,12.138 23.2238,17.408 -0.471,1.163 -0.516,2.327 -0.146,3.502 1.333,4.396 2.834,8.737 4.47,13.033 -4.067,4.889 -10.2843,7.093 -14.9335,11.334 -0.1008,-0.28 -0.3249,-0.828 -0.4369,-1.108 -4.7612,-12.609 -8.9062,-25.475 -11.8077,-38.643 -0.3361,-1.823 -0.3361,-3.692 -0.3697,-5.526 z" style="opacity:0.11" />
    <path d="m 46.0095,346.314 c 9.1415,0.872 18.2829,1.532 27.458,1.656 4.3802,4.665 10.0488,7.775 15.4037,11.176 5.2989,3.368 10.9563,6.142 16.6808,8.704 -1.311,3.234 -5.265,3.502 -7.4161,5.93 -1.2771,1.354 -2.7671,2.495 -4.4587,3.278 -4.1226,0.235 -8.7157,0.984 -12.3342,-1.511 -12.7487,-7.35 -24.7693,-16.211 -34.8518,-26.951 -0.1232,-0.571 -0.3584,-1.712 -0.4817,-2.282 z" style="opacity:0.08" />
  </g>
</svg>
