<svg width="306" height="44" viewBox="0 0 306 44" fill="none" xmlns="http://www.w3.org/2000/svg">
<g clip-path="url(#clip0)">
<path d="M56.4023 33.9597V10.6309H65.2614C67.6238 10.6309 69.6909 11.2215 71.4628 12.698C73.2346 14.1745 73.8252 15.9463 73.8252 18.0134C73.8252 20.3759 72.9393 22.1477 71.4628 23.3289C69.9862 24.5101 67.6238 25.6913 64.9661 25.6913H60.8319V33.9597H56.4023ZM61.1272 21.5571H64.9661C66.1473 21.5571 67.0332 21.2618 67.6238 20.6712C68.2144 20.0806 68.5097 19.1946 68.5097 18.3087C68.5097 17.4228 68.2144 16.5369 67.6238 15.9463C67.0332 15.0604 66.1473 14.7651 64.9661 14.7651H60.8319V21.5571H61.1272Z" fill="white"/>
<path d="M82.9805 22.443C82.9805 19.1946 84.1617 16.2416 86.5241 13.8792C88.8865 11.5168 91.8395 10.3356 95.3832 10.3356C98.6315 10.3356 101.584 11.5168 104.242 13.8792C106.605 16.2416 108.081 19.1946 107.786 22.443C107.786 25.6913 106.605 28.6443 104.242 31.0067C101.88 33.3691 98.9268 34.5503 95.3832 34.5503C92.1348 34.5503 89.1818 33.3691 86.5241 31.0067C83.8664 28.6443 82.9805 25.6913 82.9805 22.443ZM103.061 22.443C103.061 20.0805 102.47 18.3087 100.994 16.8322C99.5174 15.3557 97.7456 14.7651 95.3832 14.7651C93.316 14.7651 91.5442 15.3557 90.0677 16.8322C88.5912 18.3087 88.0006 20.0805 88.0006 22.443C88.0006 24.8054 88.5912 26.5772 90.0677 28.0537C91.5442 29.5302 93.316 30.1208 95.3832 30.1208C97.4503 30.1208 99.2221 29.5302 100.699 28.0537C102.175 26.2819 103.061 24.5101 103.061 22.443Z" fill="white"/>
<path d="M119.006 33.9598V10.6309H123.731V29.8255H134.066V34.2551H119.006V33.9598Z" fill="white"/>
<path d="M160.052 10.6309L152.079 24.8054V33.9597H147.354V24.8054L139.381 10.6309H144.696L150.012 19.7853L155.032 10.6309H160.052Z" fill="white"/>
<g opacity="0.6">
<path d="M177.181 33.9598V12.4027H168.617V10.6309H187.517V12.4027H178.953V34.2551H177.181V33.9598Z" fill="white"/>
<path d="M216.751 33.9598H214.684L206.711 23.6242H200.805V34.2551H199.033V10.6309H207.006C209.073 10.6309 210.845 11.2215 212.026 12.4027C213.208 13.5839 214.094 15.0604 214.094 17.1275C214.094 18.8993 213.503 20.0806 212.617 21.2618C211.731 22.443 210.255 23.0336 208.778 23.3289L216.751 33.9598ZM200.805 12.4027V21.8524H206.711C208.483 21.8524 209.664 21.5571 210.55 20.6712C211.436 19.7853 212.026 18.604 212.026 17.1275C212.026 15.651 211.436 14.4698 210.55 13.5839C209.664 12.698 208.483 12.4027 206.711 12.4027H200.805Z" fill="white"/>
<path d="M244.511 33.9597L242.148 28.349H229.746L227.383 33.9597H225.611L235.652 10.3356H236.537L246.578 33.9597H244.511ZM236.242 13.5839L230.927 26.8725H241.853L236.242 13.5839Z" fill="white"/>
<path d="M258.389 33.9597V10.6309H264.885C268.724 10.6309 271.973 11.8121 274.335 13.8792C276.697 15.9463 277.879 18.8993 277.879 22.1477C277.879 25.6913 276.697 28.349 274.335 30.7114C271.973 33.0738 269.02 33.9597 264.885 33.9597H258.389ZM260.456 32.4832H265.181C268.429 32.4832 271.087 31.5973 273.154 29.5302C275.221 27.7584 276.107 25.1007 276.107 22.443C276.107 19.49 275.221 17.1275 273.154 15.3557C271.087 13.5839 268.724 12.698 265.181 12.698H260.456V32.4832Z" fill="white"/>
<path d="M290.279 33.9598V10.6309H305.044V12.4027H292.346V20.6712H302.387V22.443H292.346V32.4832H305.635V34.2551H290.279V33.9598Z" fill="white"/>
</g>
<path d="M20.0805 16.8322L36.3222 26.2819C37.2081 26.8725 38.3893 26.2819 38.3893 25.1007V11.8121C38.3893 11.2215 38.094 10.9262 37.5034 10.6309L19.7852 0.295299C19.4899 -3.47942e-06 18.8993 -3.47942e-06 18.604 0.295299L0.885906 10.6309C0.295302 10.6309 0 11.2215 0 11.8121V16.5369L18.604 5.90604C19.1946 5.61073 19.4899 5.61073 20.0805 5.90604L33.0738 13.2886C33.6644 13.5839 33.9597 14.1745 33.9597 14.4698V19.1946L20.0805 11.2215C19.4899 10.9262 19.1946 10.9262 18.604 11.2215L0.885906 21.557C0.295302 21.8523 0 22.4429 0 22.7383V32.1879C0 32.7785 0.295302 33.0738 0.590604 33.3691L4.72483 35.7315V25.6913C4.72483 25.1007 5.02013 24.8054 5.61074 24.5101L18.604 17.1275C18.8993 16.5369 19.4899 16.5369 20.0805 16.8322Z" fill="#4EB6C5"/>
<path d="M20.0817 38.0939C19.4911 38.3892 19.1958 38.3892 18.6052 38.0939L9.74609 33.0738V37.7986C9.74609 38.3892 10.0414 38.6845 10.3367 38.9798L18.6052 43.7047C19.1958 44 19.4911 44 20.0817 43.7047L38.6857 33.0738L34.5515 30.7114C33.9609 30.4161 33.6656 30.4161 33.0749 30.7114L20.0817 38.0939Z" fill="#4EB6C5"/>
<path d="M20.0782 32.7785L27.756 28.349C28.3466 28.0537 28.3466 27.4631 27.756 27.1678L20.0782 22.4429C19.4876 22.1476 19.1923 22.1476 18.6017 22.4429L10.6285 26.8725C10.0379 27.1678 10.0379 27.7584 10.6285 28.0537L18.3064 32.4832C18.897 33.0738 19.4876 33.0738 20.0782 32.7785Z" fill="#4EB6C5"/>
</g>
<defs>
<clipPath id="clip0">
<rect width="305.342" height="44" fill="white"/>
</clipPath>
</defs>
</svg>